<svg width="40" height="40" viewBox="0 0 40 40" fill="none" xmlns="http://www.w3.org/2000/svg">
<rect width="40" height="40" fill="#BA0000"/>
<path d="M25.6035 6.15381H14.1167C9.72596 6.15381 6.15381 9.72596 6.15381 14.1167V25.6035C6.15381 29.9942 9.72596 33.5664 14.1167 33.5664H25.6035C29.9942 33.5664 33.5664 29.9942 33.5664 25.6035V14.1167C33.5664 9.72596 29.9942 6.15381 25.6035 6.15381ZM31.4248 25.6035C31.4248 28.8134 28.8134 31.4248 25.6035 31.4248H14.1167C10.9068 31.4248 8.29542 28.8134 8.29542 25.6035V14.1167C8.29542 10.9068 10.9068 8.29542 14.1167 8.29542H25.6035C28.8134 8.29542 31.4248 10.9068 31.4248 14.1167V25.6035Z" fill="white"/>
<path d="M19.8602 12.4716C15.7861 12.4716 12.4717 15.786 12.4717 19.8601C12.4717 23.9342 15.7861 27.2487 19.8602 27.2487C23.9343 27.2487 27.2488 23.9342 27.2488 19.8601C27.2488 15.786 23.9343 12.4716 19.8602 12.4716ZM19.8602 25.107C16.9671 25.107 14.6133 22.7533 14.6133 19.8601C14.6133 16.967 16.9671 14.6132 19.8602 14.6132C22.7534 14.6132 25.1072 16.967 25.1072 19.8601C25.1072 22.7533 22.7534 25.107 19.8602 25.107Z" fill="white"/>
<path d="M27.3557 13.4353C27.9471 13.4353 28.4265 12.9559 28.4265 12.3645C28.4265 11.7731 27.9471 11.2937 27.3557 11.2937C26.7643 11.2937 26.2849 11.7731 26.2849 12.3645C26.2849 12.9559 26.7643 13.4353 27.3557 13.4353Z" fill="white"/>
</svg>
