<svg width="40" height="40" viewBox="0 0 40 40" fill="none" xmlns="http://www.w3.org/2000/svg">
<rect width="40" height="40" fill="#BA0000"/>
<path d="M21.484 30.7788L21.904 32.2138C20.854 32.4938 19.7807 32.6338 18.684 32.6338C15.4874 32.6338 12.8507 31.5605 10.774 29.4138C8.69736 27.2905 7.65902 24.6305 7.65902 21.4338C7.65902 18.9838 8.20736 16.6505 9.30402 14.4338C10.424 12.1938 12.0807 10.3271 14.274 8.83381C16.4674 7.34047 18.9524 6.59381 21.729 6.59381C24.949 6.59381 27.6557 7.55047 29.849 9.46381C32.0424 11.3771 33.139 13.9788 33.139 17.2688C33.139 19.6255 32.5207 21.7255 31.284 23.5688C30.0707 25.4121 28.484 26.3338 26.524 26.3338C24.774 26.3338 23.5724 25.6221 22.919 24.1988C22.8957 24.1755 22.8607 24.1638 22.814 24.1638C22.324 24.8638 21.7057 25.4121 20.959 25.8088C20.2357 26.2055 19.5124 26.4038 18.789 26.4038C17.3657 26.4038 16.304 25.9255 15.604 24.9688C14.904 23.9888 14.554 22.7521 14.554 21.2588C14.554 20.0455 14.8107 18.8088 15.324 17.5488C15.8607 16.2655 16.689 15.1455 17.809 14.1888C18.929 13.2321 20.189 12.7538 21.589 12.7538C22.779 12.7538 23.759 13.1738 24.529 14.0138C24.669 13.8038 24.8557 13.4655 25.089 12.9988H26.384C25.4507 19.1588 24.984 22.4955 24.984 23.0088C24.984 24.2221 25.5207 24.8288 26.594 24.8288C28.0174 24.8288 29.1724 24.0705 30.059 22.5538C30.9457 21.0138 31.389 19.2521 31.389 17.2688C31.389 14.4455 30.4674 12.2055 28.624 10.5488C26.7807 8.89214 24.4824 8.06381 21.729 8.06381C19.8857 8.06381 18.1707 8.46047 16.584 9.25381C14.9974 10.0238 13.6907 11.0505 12.664 12.3338C11.6374 13.5938 10.8324 15.0171 10.249 16.6038C9.68902 18.1905 9.40902 19.8005 9.40902 21.4338C9.40902 24.2105 10.284 26.5205 12.034 28.3638C13.784 30.2305 16.0007 31.1638 18.684 31.1638C19.594 31.1638 20.5274 31.0355 21.484 30.7788ZM23.724 15.5888C23.0474 14.8421 22.3007 14.4688 21.484 14.4688C20.5507 14.4688 19.734 14.9005 19.034 15.7638C18.334 16.6271 17.844 17.5605 17.564 18.5638C17.284 19.5671 17.144 20.4888 17.144 21.3288C17.144 23.5688 17.8557 24.6888 19.279 24.6888C20.049 24.6888 20.714 24.3855 21.274 23.7788C21.834 23.1721 22.2774 22.3088 22.604 21.1888C22.9307 20.0455 23.164 19.1121 23.304 18.3888C23.444 17.6655 23.584 16.7321 23.724 15.5888Z" fill="white"/>
</svg>
