<svg width="143" height="143" viewBox="0 0 143 143" fill="none" xmlns="http://www.w3.org/2000/svg">
<rect width="143" height="143" fill="#BA0000"/>
<path d="M78.98 115.75L80.54 121.08C76.64 122.12 72.6533 122.64 68.58 122.64C56.7067 122.64 46.9133 118.653 39.2 110.68C31.4867 102.793 27.63 92.9133 27.63 81.04C27.63 71.94 29.6667 63.2733 33.74 55.04C37.9 46.72 44.0533 39.7867 52.2 34.24C60.3467 28.6933 69.5767 25.92 79.89 25.92C91.85 25.92 101.903 29.4733 110.05 36.58C118.197 43.6867 122.27 53.35 122.27 65.57C122.27 74.3233 119.973 82.1233 115.38 88.97C110.873 95.8167 104.98 99.24 97.7 99.24C91.2 99.24 86.7367 96.5967 84.31 91.31C84.2233 91.2233 84.0933 91.18 83.92 91.18C82.1 93.78 79.8033 95.8167 77.03 97.29C74.3433 98.7633 71.6567 99.5 68.97 99.5C63.6833 99.5 59.74 97.7233 57.14 94.17C54.54 90.53 53.24 85.9367 53.24 80.39C53.24 75.8833 54.1933 71.29 56.1 66.61C58.0933 61.8433 61.17 57.6833 65.33 54.13C69.49 50.5767 74.17 48.8 79.37 48.8C83.79 48.8 87.43 50.36 90.29 53.48C90.81 52.7 91.5033 51.4433 92.37 49.71H97.18C93.7133 72.59 91.98 84.9833 91.98 86.89C91.98 91.3967 93.9733 93.65 97.96 93.65C103.247 93.65 107.537 90.8333 110.83 85.2C114.123 79.48 115.77 72.9367 115.77 65.57C115.77 55.0833 112.347 46.7633 105.5 40.61C98.6533 34.4567 90.1167 31.38 79.89 31.38C73.0433 31.38 66.6733 32.8533 60.78 35.8C54.8867 38.66 50.0333 42.4733 46.22 47.24C42.4067 51.92 39.4167 57.2067 37.25 63.1C35.17 68.9933 34.13 74.9733 34.13 81.04C34.13 91.3533 37.38 99.9333 43.88 106.78C50.38 113.713 58.6133 117.18 68.58 117.18C71.96 117.18 75.4267 116.703 78.98 115.75ZM87.3 59.33C84.7867 56.5567 82.0133 55.17 78.98 55.17C75.5133 55.17 72.48 56.7733 69.88 59.98C67.28 63.1867 65.46 66.6533 64.42 70.38C63.38 74.1067 62.86 77.53 62.86 80.65C62.86 88.97 65.5033 93.13 70.79 93.13C73.65 93.13 76.12 92.0033 78.2 89.75C80.28 87.4967 81.9267 84.29 83.14 80.13C84.3533 75.8833 85.22 72.4167 85.74 69.73C86.26 67.0433 86.78 63.5767 87.3 59.33Z" fill="white"/>
</svg>
